<svg xmlns="http://www.w3.org/2000/svg" width="1095" height="612" viewBox="0 0 1920 1080" preserveAspectRatio="none"><defs><filter id="blur" x="-692" y="-768" width="3045" height="2960" filterUnits="userSpaceOnUse"><feGaussianBlur stdDeviation="80.5"/></filter><filter id="grain" x="-692" y="-768" width="3045" height="2960" filterUnits="userSpaceOnUse" primitiveUnits="userSpaceOnUse" color-interpolation-filters="linearRGB">
				<feTurbulence type="fractalNoise" baseFrequency=".2" numOctaves="4" seed="15" stitchTiles="no-stitch" x="0" y="0" width="1920" height="1080" result="turbulence"/>
				<feSpecularLighting surfaceScale="10" specularConstant="1.21" specularExponent="20" lighting-color="#fff" x="0" y="0" width="1920" height="1080" in="turbulence" result="specularLighting">
					<feDistantLight azimuth="3" elevation="100"/>
				</feSpecularLighting>
			</filter></defs><rect width="1920" height="1080" fill="#ffffff"/><path d="M 536.98 1188.69 L 223.68 1524.94 L -158.40 1687.87 L -525.81 1420.50 L -530.92 954.43 L -234.34 818.16 L 328.78 720.65 Z" fill="#F8C873" fill-opacity="1" filter="url(#blur)"/><path d="M 1429.19 782.12 L 1329.68 1304.10 L 885.62 1396.73 L 619.08 1263.18 L 406.97 1139.54 L 338.55 933.77 L 497.26 583.03 L 871.19 367.89 L 1163.98 461.01 Z" fill="#F49CA0" fill-opacity="1" filter="url(#blur)"/><path d="M 1134.70 -113.66 L 1045.61 295.18 L 599.53 415.86 L 314.66 91.36 L -91.79 61.24 L 21.39 -269.92 L 159.56 -575.56 L 504.71 -606.89 L 749.34 -401.52 Z" fill="#BCA5E3" fill-opacity="1" filter="url(#blur)"/><path d="M 1991.02 286.47 L 2130.10 802.91 L 1630.76 629.00 L 1268.11 493.96 L 1095.29 396.45 L 1013.73 289.30 L 1377.38 255.83 L 1740.67 331.89 Z" fill="#609EFF" fill-opacity="1" filter="url(#blur)"/><path d="M 761.84 389.62 L 689.31 515.59 L 520.90 556.28 L 463.50 415.00 L 529.97 292.53 L 676.20 315.02 Z" fill="#F8C873" fill-opacity="1" filter="url(#blur)"/><path d="M 2191.75 1670.94 L 2035.23 1995.03 L 1711.14 2030.71 L 1441.23 1940.85 L 1336.47 1670.94 L 1415.05 1374.85 L 1711.14 1223.41 L 1845.24 1393.18 Z" fill="#F49CA0" fill-opacity="1" filter="url(#blur)"/><rect width="1920" height="1080" fill="#FFFFFF" filter="url(#grain)" opacity="0.78"/></svg>